<svg viewBox="0 0 2000 1000" xmlns="http://www.w3.org/2000/svg"><mask id="b" x="0" y="0" width="2000" height="1000"><path fill="url(#a)" d="M0 0h2000v1000H0z"/></mask><path d="M0 0h2000v1000H0z"/><g style="transform-origin:center center" stroke="#0c220c" stroke-width="2" mask="url(#b)"><path fill="none" d="M0 0h100v100H0zM100 0h100v100H100zM200 0h100v100H200zM300 0h100v100H300zM400 0h100v100H400zM500 0h100v100H500zM600 0h100v100H600zM700 0h100v100H700z"/><path fill="#0c220cb9" d="M800 0h100v100H800z"/><path fill="none" d="M900 0h100v100H900z"/><path fill="#0c220cb4" d="M1000 0h100v100h-100z"/><path fill="none" d="M1100 0h100v100h-100z"/><path fill="#0c220c35" d="M1200 0h100v100h-100z"/><path fill="none" d="M1300 0h100v100h-100zM1400 0h100v100h-100zM1500 0h100v100h-100z"/><path fill="#0c220c4f" d="M1600 0h100v100h-100z"/><path fill="none" d="M1700 0h100v100h-100z"/><path fill="#0c220c8e" d="M1800 0h100v100h-100z"/><path fill="none" d="M1900 0h100v100h-100z"/><path fill="#0c220cc9" d="M0 100h100v100H0z"/><path fill="none" d="M100 100h100v100H100z"/><path fill="#0c220c8d" d="M200 100h100v100H200z"/><path fill="#0c220cb5" d="M300 100h100v100H300z"/><path fill="#0c220c7c" d="M400 100h100v100H400z"/><path fill="#0c220cb5" d="M500 100h100v100H500z"/><path fill="none" d="M600 100h100v100H600zM700 100h100v100H700z"/><path fill="#0c220c4e" d="M800 100h100v100H800z"/><path fill="none" d="M900 100h100v100H900zM1000 100h100v100h-100z"/><path fill="#0c220c26" d="M1100 100h100v100h-100z"/><path fill="none" d="M1200 100h100v100h-100zM1300 100h100v100h-100zM1400 100h100v100h-100zM1500 100h100v100h-100zM1600 100h100v100h-100z"/><path fill="#0c220c17" d="M1700 100h100v100h-100z"/><path fill="none" d="M1800 100h100v100h-100zM1900 100h100v100h-100zM0 200h100v100H0z"/><path fill="#0c220c45" d="M100 200h100v100H100z"/><path fill="#0c220c78" d="M200 200h100v100H200z"/><path fill="#0c220ce3" d="M300 200h100v100H300z"/><path fill="none" d="M400 200h100v100H400zM500 200h100v100H500zM600 200h100v100H600zM700 200h100v100H700zM800 200h100v100H800z"/><path fill="#0c220c8c" d="M900 200h100v100H900z"/><path fill="none" d="M1000 200h100v100h-100zM1100 200h100v100h-100z"/><path fill="#0c220c74" d="M1200 200h100v100h-100z"/><path fill="none" d="M1300 200h100v100h-100zM1400 200h100v100h-100z"/><path fill="#0c220cfb" d="M1500 200h100v100h-100z"/><path fill="#0c220cd4" d="M1600 200h100v100h-100z"/><path fill="none" d="M1700 200h100v100h-100zM1800 200h100v100h-100z"/><path fill="#0c220c6e" d="M1900 200h100v100h-100z"/><path fill="none" d="M0 300h100v100H0zM100 300h100v100H100zM200 300h100v100H200zM300 300h100v100H300zM400 300h100v100H400zM500 300h100v100H500z"/><path fill="#0c220cdf" d="M600 300h100v100H600z"/><path fill="none" d="M700 300h100v100H700zM800 300h100v100H800zM900 300h100v100H900z"/><path fill="#0c220c02" d="M1000 300h100v100h-100z"/><path fill="#0c220c24" d="M1100 300h100v100h-100z"/><path fill="none" d="M1200 300h100v100h-100zM1300 300h100v100h-100z"/><path fill="#0c220c49" d="M1400 300h100v100h-100z"/><path fill="none" d="M1500 300h100v100h-100zM1600 300h100v100h-100zM1700 300h100v100h-100zM1800 300h100v100h-100zM1900 300h100v100h-100z"/><path fill="#0c220c0b" d="M0 400h100v100H0z"/><path fill="#0c220c36" d="M100 400h100v100H100z"/><path fill="none" d="M200 400h100v100H200zM300 400h100v100H300zM400 400h100v100H400zM500 400h100v100H500z"/><path fill="#0c220c72" d="M600 400h100v100H600z"/><path fill="#0c220cb3" d="M700 400h100v100H700z"/><path fill="none" d="M800 400h100v100H800zM900 400h100v100H900zM1000 400h100v100h-100zM1100 400h100v100h-100zM1200 400h100v100h-100zM1300 400h100v100h-100z"/><path fill="#0c220c4b" d="M1400 400h100v100h-100z"/><path fill="none" d="M1500 400h100v100h-100zM1600 400h100v100h-100zM1700 400h100v100h-100zM1800 400h100v100h-100zM1900 400h100v100h-100zM0 500h100v100H0zM100 500h100v100H100zM200 500h100v100H200zM300 500h100v100H300zM400 500h100v100H400zM500 500h100v100H500zM600 500h100v100H600z"/><path fill="#0c220c62" d="M700 500h100v100H700z"/><path fill="#0c220c4a" d="M800 500h100v100H800z"/><path fill="#0c220c14" d="M900 500h100v100H900z"/><path fill="none" d="M1000 500h100v100h-100zM1100 500h100v100h-100zM1200 500h100v100h-100zM1300 500h100v100h-100zM1400 500h100v100h-100zM1500 500h100v100h-100zM1600 500h100v100h-100zM1700 500h100v100h-100z"/><path fill="#0c220c3b" d="M1800 500h100v100h-100z"/><path fill="#0c220c5c" d="M1900 500h100v100h-100z"/><path fill="none" d="M0 600h100v100H0zM100 600h100v100H100z"/><path fill="#0c220c37" d="M200 600h100v100H200z"/><path fill="none" d="M300 600h100v100H300zM400 600h100v100H400zM500 600h100v100H500zM600 600h100v100H600zM700 600h100v100H700zM800 600h100v100H800zM900 600h100v100H900zM1000 600h100v100h-100zM1100 600h100v100h-100zM1200 600h100v100h-100zM1300 600h100v100h-100zM1400 600h100v100h-100z"/><path fill="#0c220c05" d="M1500 600h100v100h-100z"/><path fill="#0c220c70" d="M1600 600h100v100h-100z"/><path fill="#0c220cdc" d="M1700 600h100v100h-100z"/><path fill="none" d="M1800 600h100v100h-100zM1900 600h100v100h-100z"/><path fill="#0c220c03" d="M0 700h100v100H0z"/><path fill="#0c220c49" d="M100 700h100v100H100z"/><path fill="none" d="M200 700h100v100H200z"/><path fill="#0c220ca1" d="M300 700h100v100H300z"/><path fill="none" d="M400 700h100v100H400z"/><path fill="#0c220c30" d="M500 700h100v100H500z"/><path fill="none" d="M600 700h100v100H600zM700 700h100v100H700z"/><path fill="#0c220c67" d="M800 700h100v100H800z"/><path fill="none" d="M900 700h100v100H900zM1000 700h100v100h-100z"/><path fill="#0c220ca7" d="M1100 700h100v100h-100z"/><path fill="#0c220c74" d="M1200 700h100v100h-100z"/><path fill="none" d="M1300 700h100v100h-100zM1400 700h100v100h-100z"/><path fill="#0c220cce" d="M1500 700h100v100h-100z"/><path fill="none" d="M1600 700h100v100h-100zM1700 700h100v100h-100zM1800 700h100v100h-100zM1900 700h100v100h-100z"/><path fill="#0c220c63" d="M0 800h100v100H0z"/><path fill="none" d="M100 800h100v100H100z"/><path fill="#0c220c05" d="M200 800h100v100H200z"/><path fill="none" d="M300 800h100v100H300zM400 800h100v100H400zM500 800h100v100H500zM600 800h100v100H600zM700 800h100v100H700zM800 800h100v100H800zM900 800h100v100H900zM1000 800h100v100h-100zM1100 800h100v100h-100zM1200 800h100v100h-100zM1300 800h100v100h-100zM1400 800h100v100h-100z"/><path fill="#0c220c92" d="M1500 800h100v100h-100z"/><path fill="none" d="M1600 800h100v100h-100zM1700 800h100v100h-100z"/><path fill="#0c220c24" d="M1800 800h100v100h-100z"/><path fill="none" d="M1900 800h100v100h-100zM0 900h100v100H0zM100 900h100v100H100zM200 900h100v100H200zM300 900h100v100H300zM400 900h100v100H400zM500 900h100v100H500z"/><path fill="#0c220c88" d="M600 900h100v100H600z"/><path fill="none" d="M700 900h100v100H700zM800 900h100v100H800zM900 900h100v100H900zM1000 900h100v100h-100zM1100 900h100v100h-100zM1200 900h100v100h-100z"/><path fill="#0c220c5f" d="M1300 900h100v100h-100z"/><path fill="none" d="M1400 900h100v100h-100zM1500 900h100v100h-100zM1600 900h100v100h-100zM1700 900h100v100h-100zM1800 900h100v100h-100z"/><path fill="#0c220cd3" d="M1900 900h100v100h-100z"/></g><defs><radialGradient id="a"><stop offset="0" stop-color="#fff"/><stop offset="1" stop-color="#fff" stop-opacity="0"/></radialGradient></defs></svg>